<mxfile host="app.diagrams.net" agent="Mozilla/5.0 (Windows NT 10.0; Win64; x64) AppleWebKit/537.36 (KHTML, like Gecko) Chrome/134.0.0.0 Safari/537.36" version="26.2.9">
  <diagram name="Page-1" id="m5DJ417UxSl8OukzzsTY">
    <mxGraphModel dx="1428" dy="863" grid="1" gridSize="10" guides="1" tooltips="1" connect="1" arrows="1" fold="1" page="1" pageScale="1" pageWidth="850" pageHeight="1100" math="0" shadow="0">
      <root>
        <mxCell id="0" />
        <mxCell id="1" parent="0" />
        <mxCell id="ATchxaflrgWrS_Gu--4H-1" value="&lt;font style=&quot;font-size: 28px;&quot;&gt;外公&lt;/font&gt;" style="whiteSpace=wrap;html=1;aspect=fixed;strokeWidth=5;" vertex="1" parent="1">
          <mxGeometry x="350" y="220" width="80" height="80" as="geometry" />
        </mxCell>
        <mxCell id="ATchxaflrgWrS_Gu--4H-2" value="&lt;font style=&quot;font-size: 28px;&quot;&gt;外婆&lt;/font&gt;" style="ellipse;whiteSpace=wrap;html=1;aspect=fixed;strokeWidth=5;" vertex="1" parent="1">
          <mxGeometry x="590" y="220" width="80" height="80" as="geometry" />
        </mxCell>
        <mxCell id="ATchxaflrgWrS_Gu--4H-3" value="" style="endArrow=none;html=1;rounded=0;strokeWidth=5;" edge="1" parent="1">
          <mxGeometry width="50" height="50" relative="1" as="geometry">
            <mxPoint x="390" y="360" as="sourcePoint" />
            <mxPoint x="390" y="300" as="targetPoint" />
          </mxGeometry>
        </mxCell>
        <mxCell id="ATchxaflrgWrS_Gu--4H-4" value="" style="endArrow=none;html=1;rounded=0;strokeWidth=5;" edge="1" parent="1">
          <mxGeometry width="50" height="50" relative="1" as="geometry">
            <mxPoint x="629.5" y="360" as="sourcePoint" />
            <mxPoint x="629.5" y="300" as="targetPoint" />
          </mxGeometry>
        </mxCell>
        <mxCell id="ATchxaflrgWrS_Gu--4H-5" value="" style="endArrow=none;html=1;rounded=0;strokeWidth=5;" edge="1" parent="1">
          <mxGeometry width="50" height="50" relative="1" as="geometry">
            <mxPoint x="630" y="360" as="sourcePoint" />
            <mxPoint x="389.5" y="360" as="targetPoint" />
          </mxGeometry>
        </mxCell>
        <mxCell id="ATchxaflrgWrS_Gu--4H-6" value="" style="endArrow=none;html=1;rounded=0;strokeWidth=5;" edge="1" parent="1">
          <mxGeometry width="50" height="50" relative="1" as="geometry">
            <mxPoint x="510" y="420" as="sourcePoint" />
            <mxPoint x="510" y="360" as="targetPoint" />
          </mxGeometry>
        </mxCell>
        <mxCell id="ATchxaflrgWrS_Gu--4H-7" value="&lt;font style=&quot;font-size: 28px;&quot;&gt;母&lt;/font&gt;" style="ellipse;whiteSpace=wrap;html=1;aspect=fixed;strokeWidth=5;" vertex="1" parent="1">
          <mxGeometry x="470" y="420" width="80" height="80" as="geometry" />
        </mxCell>
        <mxCell id="ATchxaflrgWrS_Gu--4H-8" value="&lt;font style=&quot;font-size: 28px;&quot;&gt;父&lt;/font&gt;" style="whiteSpace=wrap;html=1;aspect=fixed;strokeWidth=5;" vertex="1" parent="1">
          <mxGeometry x="230" y="420" width="80" height="80" as="geometry" />
        </mxCell>
        <mxCell id="ATchxaflrgWrS_Gu--4H-9" value="&lt;font style=&quot;font-size: 19px;&quot;&gt;剴剴&lt;/font&gt;&lt;div&gt;&lt;font style=&quot;font-size: 19px;&quot;&gt;（化名）&lt;/font&gt;&lt;/div&gt;" style="whiteSpace=wrap;html=1;aspect=fixed;strokeWidth=5;" vertex="1" parent="1">
          <mxGeometry x="350" y="620" width="80" height="80" as="geometry" />
        </mxCell>
        <mxCell id="ATchxaflrgWrS_Gu--4H-10" value="" style="endArrow=none;html=1;rounded=0;strokeWidth=5;" edge="1" parent="1">
          <mxGeometry width="50" height="50" relative="1" as="geometry">
            <mxPoint x="270.5" y="560" as="sourcePoint" />
            <mxPoint x="270.5" y="500" as="targetPoint" />
          </mxGeometry>
        </mxCell>
        <mxCell id="ATchxaflrgWrS_Gu--4H-11" value="" style="endArrow=none;html=1;rounded=0;strokeWidth=5;" edge="1" parent="1">
          <mxGeometry width="50" height="50" relative="1" as="geometry">
            <mxPoint x="510" y="560" as="sourcePoint" />
            <mxPoint x="510" y="500" as="targetPoint" />
          </mxGeometry>
        </mxCell>
        <mxCell id="ATchxaflrgWrS_Gu--4H-12" value="" style="endArrow=none;html=1;rounded=0;strokeWidth=5;" edge="1" parent="1">
          <mxGeometry width="50" height="50" relative="1" as="geometry">
            <mxPoint x="510.5" y="560" as="sourcePoint" />
            <mxPoint x="270" y="560" as="targetPoint" />
          </mxGeometry>
        </mxCell>
        <mxCell id="ATchxaflrgWrS_Gu--4H-13" value="" style="endArrow=none;html=1;rounded=0;strokeWidth=5;" edge="1" parent="1">
          <mxGeometry width="50" height="50" relative="1" as="geometry">
            <mxPoint x="390.5" y="620" as="sourcePoint" />
            <mxPoint x="390.5" y="560" as="targetPoint" />
          </mxGeometry>
        </mxCell>
      </root>
    </mxGraphModel>
  </diagram>
</mxfile>
